<svg width="500" height="500" viewBox="0 0 500 500" fill="none" xmlns="http://www.w3.org/2000/svg">
<rect width="500" height="500" fill="#4C3FFF"/>
<path d="M390 250.271C390 327.475 325.956 390 247.558 390H232.099C216.64 390 204.494 378.038 204.494 362.815V241.029C204.494 225.805 216.64 213.844 232.099 213.844C247.558 213.844 259.704 225.805 259.704 241.029V334.543C301.663 328.562 334.237 293.223 334.237 249.728C334.237 202.427 295.59 164.369 247.558 164.369C232.099 164.369 217.744 168.175 205.598 175.242C190.692 183.398 178.545 195.903 170.816 211.126C170.264 212.213 166.951 219.281 164.743 226.349C163.639 229.068 161.43 230.699 158.67 230.155C155.357 229.611 153.149 226.349 154.253 223.631C156.462 214.388 159.774 208.407 160.326 207.864C161.43 205.145 160.326 202.427 157.566 201.339H157.014C154.253 200.252 150.94 201.339 149.836 203.514C149.284 205.145 148.18 206.233 147.628 207.864C143.763 217.106 141.003 226.893 139.346 236.679C139.346 237.223 138.794 242.116 138.794 242.66C138.794 245.378 136.034 248.097 133.273 247.553C129.961 247.553 127.752 244.834 128.304 242.116C128.857 232.873 131.065 223.087 133.273 214.932C133.273 214.388 133.273 214.388 133.825 213.844C133.825 211.67 132.169 209.495 129.961 208.407C127.2 207.32 124.44 208.951 123.336 211.67C123.336 212.213 121.679 216.563 121.127 218.738C120.575 221.456 117.815 223.087 114.502 222.543C111.741 222 109.533 219.281 110.085 216.563C111.741 210.582 114.502 202.427 116.158 197.534C127.2 170.349 147.076 147.514 171.92 131.747C194.004 118.155 219.953 110 248.11 110C326.508 110 390 173.068 390 250.271Z" fill="white"/>
</svg>
