<svg width="500" height="500" viewBox="0 0 500 500" fill="none" xmlns="http://www.w3.org/2000/svg">
<rect width="500" height="500" fill="#5B3AE8"/>
<path d="M187.101 390L125.125 385.297L138.775 169.888C132.38 171.142 126.478 172.605 121.067 174.278L110 120.974C123.035 118.675 139.144 116.271 158.327 113.763C177.51 111.254 197.308 110 217.721 110C233.461 110 249.447 111.463 265.679 114.39C281.91 117.107 297.404 121.706 312.161 128.186C327.163 134.457 340.444 142.923 352.003 153.583C363.808 164.244 373.03 177.309 379.671 192.777C386.557 208.246 390 226.536 390 247.648C390 277.331 384.343 302.729 373.03 323.841C361.963 344.744 345.731 360.735 324.335 371.814C303.184 382.893 277.607 388.432 247.602 388.432C227.681 388.432 208.006 385.297 188.577 379.026C188.085 383.206 187.593 386.865 187.101 390ZM215.138 162.676C211.695 162.676 208.129 162.676 204.44 162.676C201.981 201.557 199.767 234.688 197.8 262.072C195.832 289.246 194.111 311.926 192.635 330.112C200.013 332.202 208.129 334.084 216.983 335.756C226.083 337.219 235.551 337.951 245.389 337.951C265.31 337.951 281.296 333.666 293.346 325.095C305.643 316.525 314.497 305.237 319.908 291.232C325.318 277.018 328.024 261.654 328.024 245.14C328.024 231.971 325.687 220.788 321.014 211.59C316.342 202.393 310.193 194.763 302.569 188.701C295.191 182.639 287.075 177.936 278.221 174.591C269.368 171.038 260.637 168.425 252.029 166.753C243.667 165.08 236.166 164.035 229.526 163.617C222.885 162.99 218.09 162.676 215.138 162.676Z" fill="white"/>
</svg>
